# xmcd
#
# Track frame offsets:
#	150
#	15130
#	32444
#	48088
#	65993
#	83849
#	106660
#	121078
#	139681
#	154097
#	163141
#	178116
#	197218
#	212246
#	229797
#	250882
#	272003
#	288393
#	305585
#	319586
#
# Disc length: 4506 seconds
#
# Revision: 0
# Processed by: cddbd v1.5.1PL0 Copyright (c) Steve Scherf et al.
# Submitted via: audiograbber 1.83.01
#
DISCID=10119814
DTITLE=popo - lölö
DYEAR=1900
DGENRE=
TTITLE0=Vanilla Ninja I know
TTITLE1=Nu Pagadi Dying words
TTITLE2=Apocalyptica Feat. Wie weit
TTITLE3=Martin Kesici Leaving you for me
TTITLE4=Gracia Run and hide
TTITLE5=Hoobastank Disappear
TTITLE6=U2 Vertigo
TTITLE7=Marilyn Manson Personal Jesus
TTITLE8=Papa Roach Getting away with Murder 
TTITLE9=The Hives Two timing touch and broken bones
TTITLE10=The Killers Somebody told me
TTITLE11=Franz Ferdinand This fffire
TTITLE12=The Cure Taking off
TTITLE13=Bloc Party So here we are
TTITLE14=Sicissor sisters Mary
TTITLE15=Blink 182 Always
TTITLE16=Ashlee Simpson Peaces of me
TTITLE17=Christina Millian feat. What ever you want
TTITLE18=Jansen and Kowalski Mamacita
TTITLE19=Söhne Mannheims Und wenn ein Lied
EXTD=
EXTT0=
EXTT1=
EXTT2=
EXTT3=
EXTT4=
EXTT5=
EXTT6=
EXTT7=
EXTT8=
EXTT9=
EXTT10=
EXTT11=
EXTT12=
EXTT13=
EXTT14=
EXTT15=
EXTT16=
EXTT17=
EXTT18=
EXTT19=
PLAYORDER=
